<?xml version="1.0" encoding="utf-8"?>
<!-- Generator: Adobe Illustrator 25.2.0, SVG Export Plug-In . SVG Version: 6.00 Build 0)  -->
<svg version="1.1" id="Layer_1" xmlns="http://www.w3.org/2000/svg" xmlns:xlink="http://www.w3.org/1999/xlink" x="0px" y="0px"
	 viewBox="0 0 683 241.9" style="enable-background:new 0 0 683 241.9;" xml:space="preserve">
<style type="text/css">
	.st0{fill:#00838F;}
</style>
<g id="XMLID_1269_">
	<g>
		<g id="XMLID_113_">
			<g id="XMLID_114_">
				<g id="XMLID_119_">
					<g id="XMLID_123_">
						<path class="st0" d="M77.4,211.9c1-1.5,2-3.2,3-4.8c0.1-0.1,0.1-0.2,0.2-0.3C43.4,196,16.2,161.6,16.2,121
							c0-14.2,3.4-27.6,9.3-39.6c0,0,0,0-0.1,0l-3-2c-1.2-0.8-2.3-1.5-3.4-2.1c-6.7,13.1-10.4,28-10.4,43.8
							c0,43.3,28.5,80.1,67.8,92.6L77.4,211.9z"/>
					</g>
					<g id="XMLID_122_">
						<path class="st0" d="M30,65.5c1.7-0.1,3.6-0.1,5.5,0c16.4-20.7,41.8-34,70.2-34s53.7,13.3,70.2,34c1.9-0.1,3.8-0.1,5.5,0
							c1.4,0.1,2.8,0.2,4.3,0.3c-17.6-25.3-46.9-41.9-79.9-41.9s-62.5,16.6-80,41.9C27.2,65.7,28.6,65.6,30,65.5z"/>
					</g>
					<g id="XMLID_121_">
						<path class="st0" d="M115.2,210.2c-0.1-0.1-0.2-0.3-0.3-0.4c-3.1,0.3-6.1,0.5-9.3,0.5c-3.1,0-6.2-0.2-9.3-0.5
							c-0.1,0.1-0.2,0.3-0.3,0.4c-2,2.1-4.2,4.3-6.7,6.4c5.3,0.9,10.7,1.4,16.2,1.4s10.9-0.5,16.2-1.4
							C119.4,214.7,117.2,212.5,115.2,210.2z"/>
					</g>
					<g id="XMLID_120_">
						<path class="st0" d="M188.8,79.3l-3,2c0,0,0,0-0.1,0c5.9,12,9.3,25.4,9.3,39.6c0,40.6-27.3,75-64.4,85.8
							c0.1,0.1,0.1,0.2,0.2,0.3c1,1.6,2,3.2,3,4.8l1.1,1.6c39.2-12.5,67.8-49.2,67.8-92.6c0-15.8-3.8-30.6-10.4-43.8
							C191.1,77.7,190,78.4,188.8,79.3z"/>
					</g>
				</g>
				<g id="XMLID_115_">
					<g>
						<g id="XMLID_118_">
							<path class="st0" d="M108.6,54.7c0.5,0.1,1,0.3,1.4,0.4c3.7,1,6.3,3.2,8,6.4c3.5,6.5,3.2,13,0.1,19.6c-1.3,2.8-3.2,5-5.7,6.9
								c-5.3,3.9-12.4,3.5-16.9-1.9c-2.7-3.2-3.9-7-4.1-11c0-0.8-0.1-1.6-0.1-2.4s0.1-1.5,0.3-2.3c0.8-3.1,1.7-6.1,3.7-8.7
								c2.5-3.5,5.7-6,10.1-6.7c0.1,0,0.2-0.1,0.3-0.1C106.7,54.7,107.7,54.7,108.6,54.7z"/>
						</g>
						<g id="XMLID_117_">
							<path class="st0" d="M192.1,71.7c-2.8,0.9-4.9,2.5-7.2,4.1c-2.3,1.5-4.7,3.1-7.1,4.7c-2.9,2.1-5.8,4.3-8.5,6.6
								c-4.3,3.6-8.4,7.5-12.4,11.7c-4.3,4.4-8.3,9.1-12.1,13.9c-3.4,4.3-6.5,8.7-9.4,13.3c-4.7,7.7-8.8,15.8-11.6,24.4
								c-1.8,5.6-3,11.3-3.4,17.1c-0.5,6.5,0.1,12.9,1.8,19.1c0.5,1.6,1.1,3.3,1.6,4.9c0.1,0.2,0.1,0.3,0,0.6
								c-0.2-0.6-0.5-1.1-0.7-1.6c-2.4-5.6-4.3-11.3-5.2-17.3c-0.6-3.2-0.8-6.5-1.1-9.8c-0.4-4.6,0-9.3,0.5-13.8
								c0.7-6,1.8-11.9,3.6-17.7c1.7-5.8,4-11.5,6.9-16.8c2.5-4.7,5.5-9.3,9-13.3c0.1-0.2,0.2-0.3,0.3-0.6c-0.1,0.1-0.3,0.1-0.3,0.2
								c-3.7,4-7,8.2-9.8,12.9c-3.2,5.2-5.8,10.8-7.9,16.5c-2.5,6.9-4.2,13.8-5.2,21.1c-0.8,5.6-1.1,11.1-0.8,16.7
								c0.3,6.4,1.5,12.6,3.4,18.8c2.3,7.8,5.7,15.2,9.9,22.2c1.4,2.4,3,4.8,4.4,7.1c-0.9-0.6-1.8-1.4-2.9-2c-3.6-2-6.4-4.9-9.1-7.9
								c-3.5-3.8-6.4-7.8-9-12.2c-3-5.1-5.5-10.4-7.3-16c-1.2-3.5-2-7.2-3-10.7c-0.2-0.8-0.6-1.5-0.7-2.4c0-0.4-0.1-0.8-0.1-1.2
								c-0.1-0.9-0.2-1.7-0.4-2.6c-0.7-4.2-1-8.4-1-12.7c0.1-5.7,0.8-11.3,2.1-16.9c0.4-1.5,1-3,1.4-4.5c1.3-4.7,3.3-9.2,5.6-13.5
								c2.6-4.9,5.7-9.5,9.2-13.7c2.9-3.5,6-6.7,9.5-9.7c4.3-3.7,8.9-7,13.7-9.7c4.6-2.6,9.5-4.7,14.6-6.5c4.9-1.6,10-2.7,15.2-3.4
								c4.1-0.5,8.2-0.9,12.4-0.7c3.6,0.2,7.1,0.6,10.6,0.9C191.7,71.5,191.8,71.6,192.1,71.7z"/>
						</g>
						<g id="XMLID_116_">
							<path class="st0" d="M19.1,71.7c2.8,0.9,4.9,2.5,7.2,4.1c2.3,1.5,4.7,3.1,7.1,4.7c2.9,2.1,5.8,4.3,8.5,6.6
								c4.3,3.6,8.4,7.5,12.4,11.7c4.3,4.4,8.3,9.1,12.1,13.9c3.4,4.3,6.5,8.7,9.4,13.3c4.7,7.7,8.8,15.8,11.6,24.4
								c1.8,5.6,3,11.3,3.4,17.1c0.5,6.5-0.1,12.9-1.8,19.1c-0.5,1.6-1.1,3.3-1.6,4.9c-0.1,0.2-0.1,0.3,0,0.6
								c0.2-0.6,0.5-1.1,0.7-1.6c2.4-5.6,4.3-11.3,5.2-17.3c0.6-3.2,0.8-6.5,1.1-9.8c0.4-4.6,0-9.3-0.5-13.8
								c-0.7-6-1.8-11.9-3.6-17.7c-1.7-5.8-4-11.5-6.9-16.8c-2.5-4.7-5.5-9.3-9-13.3c-0.1-0.2-0.2-0.3-0.3-0.6
								c0.1,0.1,0.3,0.1,0.3,0.2c3.7,4,7,8.2,9.8,12.9c3.2,5.2,5.8,10.8,7.9,16.5c2.5,6.9,4.2,13.8,5.2,21.1
								c0.8,5.6,1.1,11.1,0.8,16.7c-0.3,6.4-1.5,12.6-3.4,18.8c-2.3,7.8-5.7,15.2-9.9,22.2c-1.4,2.4-3,4.8-4.4,7.1
								c0.9-0.6,1.8-1.4,2.9-2c3.6-2,6.4-4.9,9.1-7.9c3.5-3.8,6.4-7.8,9-12.2c3-5.1,5.5-10.4,7.3-16c1.2-3.5,2-7.2,3-10.7
								c0.2-0.8,0.6-1.5,0.7-2.4c0-0.4,0.1-0.8,0.1-1.2c0.1-0.9,0.2-1.7,0.4-2.6c0.7-4.2,1-8.4,1-12.7c-0.1-5.7-0.8-11.3-2.1-16.9
								c-0.4-1.5-1-3-1.4-4.5c-1.3-4.7-3.3-9.2-5.6-13.5c-2.6-4.9-5.7-9.5-9.2-13.7c-2.9-3.5-6-6.7-9.5-9.7c-4.3-3.7-8.9-7-13.7-9.7
								c-4.6-2.6-9.5-4.7-14.6-6.5c-4.9-1.6-10-2.7-15.2-3.4c-4.1-0.5-8.2-0.9-12.4-0.7c-3.6,0.2-7.1,0.6-10.6,0.9
								C19.5,71.5,19.4,71.6,19.1,71.7z"/>
						</g>
					</g>
				</g>
			</g>
		</g>
	</g>
</g>
<g id="XMLID_1255_">
	<path id="XMLID_1266_" class="st0" d="M340.6,170.7h-22.7l-29.7-33.9h-18.5v33.9h-19.1V68.9c16.1,0,32.2,0.1,48.3,0.1
		c23.9,0.1,36.6,16.1,36.6,33.6c0,14-6.4,28.1-25.7,31.9l30.7,34.7v1.3h0.1V170.7z M269.7,87v32.4h29.1c12.2,0,17.4-8.1,17.4-16.2
		S311,87,298.9,87H269.7z"/>
	<path id="XMLID_1263_" class="st0" d="M362.2,141.3c1.2,8.9,8.9,15.3,21.3,15.3c6.5,0,15-2.5,19.1-6.6l11.3,11.2
		c-7.6,7.8-19.8,11.6-30.7,11.6c-24.7,0-39.4-15.3-39.4-38.2c0-21.8,14.8-37.5,38-37.5c23.9,0,38.8,14.8,36.2,44.3h-55.8V141.3z
		 M401.1,126.6c-1.2-9.3-8.4-14-18.6-14c-9.6,0-17.4,4.7-20.1,14H401.1z"/>
	<path id="XMLID_1260_" class="st0" d="M488.5,99.1h17v71.5h-16.6l-0.9-10.5c-4.1,8.4-15.3,12.5-23.3,12.6
		c-21.1,0.1-36.8-12.9-36.8-38c0-24.7,16.4-37.6,37.2-37.5c9.6,0,18.7,4.5,22.7,11.6L488.5,99.1z M445.5,134.9
		c0,13.7,9.4,21.8,21.1,21.8c27.9,0,27.9-43.3,0-43.3C455,113.2,445.5,121.2,445.5,134.9z"/>
	<path id="XMLID_1258_" class="st0" d="M583.3,161.6c-8.2,8.1-17,11.3-27.5,11.3c-20.7,0-38-12.5-38-37.9s17.3-37.9,38-37.9
		c10.1,0,18,2.9,25.8,10.6l-11.2,11.7c-4.3-3.7-9.4-5.7-14.4-5.7c-11.8,0-20.6,8.6-20.6,21.1c0,13.7,9.3,20.9,20.3,20.9
		c5.7,0,11.3-1.6,15.7-6L583.3,161.6z"/>
	<path id="XMLID_1256_" class="st0" d="M608.8,69.2V109c6.4-8.2,14.2-10.8,22.3-10.8c20.3,0,29.3,13.8,29.3,34.8v37.8h-17.7v-37.6
		c0-13-6.8-18.6-16.2-18.6c-10.5,0-17.7,8.9-17.7,19.5v36.6h-17.7V69.2H608.8z"/>
</g>
</svg>
